<?xml version="1.0" standalone="no"?>
<!DOCTYPE svg PUBLIC "-//W3C//DTD SVG 20010904//EN"
 "http://www.w3.org/TR/2001/REC-SVG-20010904/DTD/svg10.dtd">
<svg version="1.0" xmlns="http://www.w3.org/2000/svg"
 width="300.000000pt" height="300.000000pt" viewBox="0 0 300.000000 300.000000"
 preserveAspectRatio="xMidYMid meet">
<metadata>
Created by potrace 1.14, written by Peter Selinger 2001-2017
</metadata>
<g transform="translate(0.000000,300.000000) scale(0.100000,-0.100000)"
fill="#000000" stroke="none">
<path d="M1325 2933 c-11 -2 -56 -11 -100 -19 -307 -57 -592 -227 -820 -489
-35 -40 -147 -209 -174 -263 -133 -263 -185 -603 -136 -892 53 -315 192 -580
421 -800 197 -189 424 -311 689 -372 117 -26 371 -35 499 -18 183 25 407 106
561 203 316 198 539 503 638 875 30 115 31 121 31 347 0 226 -1 232 -31 347
-114 427 -380 754 -768 944 -217 106 -390 145 -640 143 -82 -1 -159 -3 -170
-6z m407 -623 c66 -51 88 -178 88 -496 0 -131 4 -224 9 -224 12 0 48 36 192
190 161 174 261 230 326 185 31 -22 45 -78 32 -133 -18 -83 -67 -162 -196
-314 -40 -47 -73 -90 -73 -94 0 -4 27 -53 59 -108 108 -184 191 -395 191 -483
0 -108 -87 -159 -168 -100 -73 54 -172 211 -251 397 -25 58 -46 107 -47 108
-1 2 -29 -14 -62 -36 l-59 -41 -6 -118 c-14 -246 -69 -363 -171 -363 -57 0
-90 27 -115 94 -34 92 -44 211 -37 436 4 113 11 329 16 480 11 343 32 471 92
567 42 69 128 94 180 53z m-448 -285 c70 -34 95 -140 46 -193 -11 -11 -55 -42
-99 -68 -115 -68 -134 -90 -139 -164 l-4 -61 54 -52 c30 -29 77 -73 105 -99
57 -52 83 -112 83 -188 0 -163 -128 -343 -305 -431 -75 -38 -96 -43 -170 -47
-109 -6 -148 2 -190 39 -61 54 -60 147 3 209 28 28 59 43 124 64 116 37 148
66 148 134 0 48 -5 57 -81 159 -45 59 -95 137 -112 171 -28 59 -29 70 -25 146
8 114 45 192 132 273 100 94 205 135 326 129 36 -2 83 -11 104 -21z"/>
</g>
</svg>
